<svg xmlns="http://www.w3.org/2000/svg" viewBox="0 0 1400 1400"><g id="Lag_2" data-name="Lag 2"><g id="Layer_1" data-name="Layer 1"><path d="M700,0C313.41,0,0,313.41,0,700s313.41,700,700,700,700-313.41,700-700S1086.62,0,700,0Zm-.45,1367.19h0Zm.26-10.94c-187.35,0-356.26-78.66-475.83-204.6C269.88,1088.43,381,1047.5,446.27,1024c67.22-24.11,89.54-38.66,107.25-61.87s10.27-122.42,10.27-122.42-37.21-51.31-49.32-83.54S500,662,500,662s-31.68-21.1-39.72-46.65-14.77-68.87-9.37-87.86c3.76-13.44,17-14.51,24.45-14A281.22,281.22,0,0,1,464,454.57c-3.78-47.32-1.65-73.32,15-114.85,21.78-54,90.82-121,189.28-121,49.26,0,104,4.89,136.27,22.54,0,0,28.53-4.33,60.63,13.44,39.77,22,71.31,79,71.09,164.41-.09,38.32-2.85,61.87-11.54,94.24,7.64-.26,19.55,1.43,23.11,14.08,5.31,19-1.36,62.42-9.35,88S898.74,662,898.74,662s-2.32,62-14.43,94.32S835,839.71,835,839.71s-7.44,99.2,10.22,122.42,40.1,37.76,107.32,61.87c65.39,23.56,177,64.66,222.64,128.15C1055.64,1277.8,886.93,1356.25,699.81,1356.25Z"/></g></g></svg>